<svg width="43" height="43" viewBox="0 0 43 43" fill="none" xmlns="http://www.w3.org/2000/svg">
<path d="M21.25 0C9.49875 0 0 9.49875 0 21.25C0 33.0013 9.49875 42.5 21.25 42.5C33.0013 42.5 42.5 33.0013 42.5 21.25C42.5 9.49875 33.0013 0 21.25 0ZM21.25 38.25C11.8787 38.25 4.25 30.6213 4.25 21.25C4.25 11.8787 11.8787 4.25 21.25 4.25C30.6213 4.25 38.25 11.8787 38.25 21.25C38.25 30.6213 30.6213 38.25 21.25 38.25ZM28.8787 10.625L21.25 18.2537L13.6213 10.625L10.625 13.6213L18.2537 21.25L10.625 28.8787L13.6213 31.875L21.25 24.2463L28.8787 31.875L31.875 28.8787L24.2463 21.25L31.875 13.6213L28.8787 10.625Z" fill="#C80000"/>
</svg>
