<svg width="22" height="36" viewBox="0 0 22 36" fill="none" xmlns="http://www.w3.org/2000/svg">
<path d="M7.125 25.3466V25.0227C7.14773 22.9091 7.35795 21.2273 7.75568 19.9773C8.16477 18.7273 8.74432 17.7159 9.49432 16.9432C10.2443 16.1704 11.1477 15.4659 12.2045 14.8295C12.8864 14.3977 13.5 13.9148 14.0455 13.3807C14.5909 12.8466 15.0227 12.2329 15.3409 11.5398C15.6591 10.8466 15.8182 10.0795 15.8182 9.23863C15.8182 8.22726 15.5795 7.35226 15.1023 6.61363C14.625 5.87499 13.9886 5.30681 13.1932 4.90908C12.4091 4.49999 11.5341 4.29544 10.5682 4.29544C9.69318 4.29544 8.85795 4.47726 8.0625 4.8409C7.26705 5.20453 6.60795 5.77272 6.08523 6.54544C5.5625 7.30681 5.26136 8.28976 5.18182 9.49431H0C0.0795455 7.44885 0.596591 5.72158 1.55114 4.31249C2.50568 2.89203 3.76705 1.81817 5.33523 1.0909C6.91477 0.363624 8.65909 -1.23978e-05 10.5682 -1.23978e-05C12.6591 -1.23978e-05 14.4886 0.392034 16.0568 1.17613C17.625 1.94885 18.8409 3.03408 19.7045 4.43181C20.5795 5.81817 21.017 7.43749 21.017 9.28976C21.017 10.5625 20.8182 11.7102 20.4205 12.7329C20.0227 13.7443 19.4545 14.6477 18.7159 15.4432C17.9886 16.2386 17.1136 16.9432 16.0909 17.5568C15.125 18.1591 14.3409 18.7841 13.7386 19.4318C13.1477 20.0795 12.7159 20.8466 12.4432 21.7329C12.1705 22.6193 12.0227 23.7159 12 25.0227V25.3466H7.125ZM9.69886 35.7102C8.76705 35.7102 7.96591 35.3807 7.29545 34.7216C6.625 34.0511 6.28977 33.2443 6.28977 32.3011C6.28977 31.3693 6.625 30.5739 7.29545 29.9148C7.96591 29.2443 8.76705 28.9091 9.69886 28.9091C10.6193 28.9091 11.4148 29.2443 12.0852 29.9148C12.767 30.5739 13.108 31.3693 13.108 32.3011C13.108 32.9261 12.9489 33.5 12.6307 34.0227C12.3239 34.5341 11.9148 34.9432 11.4034 35.25C10.892 35.5568 10.3239 35.7102 9.69886 35.7102Z" fill="#CC7400"/>
</svg>
